<svg viewBox="0 0 400 400" xmlns="http://www.w3.org/2000/svg" height="400" width="400"><path d="M103.378 121.354c0.212 -0.106 17.78 -20.736 17.78 -20.736a13.678 13.678 0 0 0 22 -6.646c0.738 -2.692 0.632 -8.76 -2.638 -12.188 -1.162 -1.214 -4.38 1.688 -3.166 4.642a7.85 7.85 0 0 1 -3.06 8.6 9.052 9.052 0 0 1 -11.132 -0.844 9.674 9.674 0 0 1 2.8 -15.616c3.746 -2.058 4.906 0.58 6.068 -3.588 0.686 -2.428 -4.8 -3.588 -9.444 -2.164a15.022 15.022 0 0 0 -8.178 5.54 14.6 14.6 0 0 0 1.37 17.834S95.042 119.296 94.62 119.93c-1.16 1.8 2.586 0.686 3.218 0.686a11.638 11.638 0 0 1 3.324 0.368c0.898 0.318 1.53 0.634 2.216 0.37Z" fill="#ffb306" stroke-width="2"></path><path d="M113.35 114.336c0.352 -2 0 -5.17 -2.164 -6.12 -0.632 -0.264 -1.476 0.318 -1.054 1.056 0.474 0.738 2.532 2.848 2.11 4.906 -0.106 0.634 0.996 0.79 1.108 0.158Z" fill="#1c2733" stroke-width="2"></path><path d="M114.88 111.54c0.21 -2.168 -0.106 -5.6 -2.428 -6.542 -0.474 -0.212 -0.948 0.37 -0.844 0.844 0.264 0.898 2.744 3.324 2.112 5.752 -0.16 0.684 1.08 0.684 1.16 -0.054Z" fill="#1c2733" stroke-width="2"></path><path d="M116.832 109.218c0 -4.8 -2.11 -7.228 -3.482 -7.544a0.762 0.762 0 0 0 -0.844 1.108c0.528 1 3.27 3.112 3.218 6.436 0 0.686 1.056 0.686 1.108 0Z" fill="#1c2733" stroke-width="2"></path><path d="M80.322 139.292c-4.854 5.54 -10.6 11.45 -10.6 11.45A4.47 4.47 0 0 0 74.2 153.96s17.674 -17.148 19.574 -19.68a51.424 51.424 0 0 1 -8.6 4.326 16.062 16.062 0 0 1 -4.852 0.686Z" fill="#ffb306" stroke-width="2"></path><path d="M95.516 124.73c3.348 -0.864 5.858 2.11 6.912 2.638a0.728 0.728 0 0 0 1.056 -0.58c-0.054 -1.582 -3.218 -4.6 -8.178 -3a0.488 0.488 0 1 0 0.21 0.942Z" fill="#1c2733" stroke-width="2"></path><path d="M96.784 127.686c3.162 -0.29 3.586 1.952 4.272 2.374a0.704 0.704 0 0 0 1.056 -0.634 4.37 4.37 0 0 0 -5.488 -2.69c-0.424 0.21 -0.368 0.998 0.16 0.95Z" fill="#1c2733" stroke-width="2"></path><path d="M96.2 130.85c0.686 -0.158 1.742 1.32 1.636 2.428 -0.052 0.422 0.844 0.474 1.056 0.158 1.16 -2.428 -1.742 -3.904 -2.692 -3.958s-0.894 1.268 0 1.372Z" fill="#1c2733" stroke-width="2"></path><path d="M67.764 106.8c5.15 2.144 24.692 5.6 31.762 2.954 0.634 -0.2 0.37 -1.424 -0.158 -1.318 -6.384 1.16 -25.8 -0.95 -31.182 -2.534 -0.526 -0.166 -0.946 0.672 -0.422 0.898Z" fill="#1c2733" stroke-width="2"></path><path d="M84.7 119.612c3.172 -0.316 6.384 -0.316 9.55 -0.686 0.634 -0.052 0.844 -1 0.158 -1.16a23.954 23.954 0 0 0 -9.866 0.686c-0.632 0.158 -0.474 1.224 0.158 1.16Z" fill="#1c2733" stroke-width="2"></path><path d="M92.088 122.884c-1.8 -0.738 -5.436 1.318 -7.914 1.846 -0.264 -2.584 -3.694 -8.546 -6.49 -12.134 -0.37 -0.476 -1.162 0.158 -0.844 0.632 2.32 3.114 5.644 9.55 5.75 11.766a23.34 23.34 0 0 1 -17.674 -8.81c-0.422 -0.476 -1.266 0.158 -0.898 0.686 3 3.956 12.822 15.932 27.488 7.544 0.686 1.056 0.37 4.642 0.582 5.646a0.694 0.694 0 0 0 1.266 0.158 7.25 7.25 0 0 0 -1.266 -7.334Z" fill="#1c2733" stroke-width="2"></path><path d="M53.572 128.108c2.85 15.976 34.294 11.6 38.04 3.534 0.37 -0.844 -0.686 -1.742 -1.16 -1.16 -3.958 5.064 -28.544 12.556 -35.982 -2.638a0.468 0.468 0 0 0 -0.898 0.264Z" fill="#1c2733" stroke-width="2"></path><path d="M64.178 102.044a9.134 9.134 0 0 0 1.846 5.486c0.316 0.318 1 0.106 0.95 -0.368a27.33 27.33 0 0 1 -1.426 -5.276c0.106 -0.792 -1.432 -0.634 -1.37 0.158Z" fill="#1c2733" stroke-width="2"></path><path d="M199.772 249.72c7.072 0.664 35.138 1.214 41.68 -0.158a1.026 1.026 0 0 0 -0.264 -2c-3.428 -0.104 -34.504 1.268 -41.416 1.162a0.504 0.504 0 0 0 0 0.996Z" fill="#1c2733" stroke-width="2"></path><path d="M67.924 91.28c2.742 -1.372 -1.69 -6.384 -2.956 -7.544 -0.422 -0.37 -1 0.2 -0.58 0.58 0.316 0.316 3.958 5.17 2.268 5.54a0.856 0.856 0 0 0 -0.58 1.056c0.318 0.79 0.58 1.53 0.898 2.268a5.894 5.894 0 0 0 -4.644 1.74 22.106 22.106 0 0 1 -2.374 -1.582c0.844 -0.264 0.898 -4.274 0.212 -6.332 -1.952 1 -8.39 4.064 -8.232 4.854 1.056 5.6 6.542 2.902 6.6 2.902a58.6 58.6 0 0 0 4.6 4.96c3.64 2.8 5.91 0.264 6.226 -1.478a30.772 30.772 0 0 0 -1.438 -6.964Z" fill="#1c2733" stroke-width="2"></path><path d="M324.6 277.05c-0.368 -0.528 -1.476 0.052 -1.16 0.686a101.106 101.106 0 0 0 9.128 11.554c-6.332 -0.37 -29.8 -0.21 -36.3 -0.106a52.76 52.76 0 0 0 8.02 -11.29 0.674 0.674 0 0 0 -1.16 -0.686 119 119 0 0 1 -8.39 11.344c-1.266 1.108 -0.368 1.9 0.158 1.952 6.332 0.422 30.6 0.686 38.304 0.528 4.746 0.184 -5.908 -10.202 -8.6 -13.982Z" fill="#ffb306" stroke-width="2"></path><path d="M131.658 313.824c-0.476 -0.474 -1.478 0.054 -1.162 0.686a102.332 102.332 0 0 0 8.02 11.502c-5.962 -0.316 -29.388 -0.422 -35.19 -0.054a52.822 52.822 0 0 0 8.018 -11.29 0.674 0.674 0 0 0 -1.16 -0.686 119.074 119.074 0 0 1 -8.388 11.344c-0.264 0.316 -1.584 1.9 0.158 1.952 6.33 0.422 30.548 0.422 38.304 0.528 0.158 0 0.528 -0.58 0.316 -1.162a88.814 88.814 0 0 0 -8.916 -12.82Z" fill="#ffb306" stroke-width="2"></path><path d="M69.242 81c-1.166 0.514 -2.268 1.108 -3.376 1.688a8.58 8.58 0 0 0 -12.242 -5.222 9.43 9.43 0 0 0 -2.478 13.98c0.052 0.37 0.368 0.74 0.79 0.58 0.158 0 16.25 -8.124 18.256 -9.338a0.97 0.97 0 0 0 -0.95 -1.688Z" fill="#ffb306" stroke-width="2"></path><path d="M356.786 183.876c0.954 0.25 4.116 0.158 4 -1.742 -0.052 -0.474 -0.738 -0.474 -0.95 -0.106a2.65 2.65 0 0 1 -2.9 1c-0.518 -0.05 -0.57 0.736 -0.15 0.848Z" fill="#1c2733" stroke-width="2"></path><path d="M353.886 177.966a1.848 1.848 0 0 0 1.424 3.112 1.36 1.36 0 0 0 1.266 -0.95c0.106 -0.422 -0.37 -1 -0.686 -0.684 -0.474 0.526 -1.952 0.368 -1.266 -0.898 0.376 -0.474 -0.316 -1.002 -0.738 -0.58Z" fill="#1c2733" stroke-width="2"></path><path d="M362.644 183.876a4.96 4.96 0 0 1 -7.124 1.898c-2.69 -1.688 -3.324 -5.012 -3.27 -7.966 0 -0.58 -0.898 -0.686 -1 -0.158a9.054 9.054 0 0 0 4.644 10.234 5.314 5.314 0 0 0 1.318 0.37c-0.052 0.95 -0.21 1.9 -0.316 2.902 -0.052 0.37 0.58 0.528 0.738 0.212a7.098 7.098 0 0 0 0.582 -3 5.176 5.176 0 0 0 5.6 -4.222c0.146 -0.64 -0.85 -0.746 -1.172 -0.27Z" fill="#1c2733" stroke-width="2"></path><path d="M318.746 218.696c0.6 2.738 4.538 5.858 7.282 3.8 0.316 -0.264 0.37 -0.898 -0.106 -1 -1.162 -0.212 -4.642 0.58 -5.962 -3.324 -0.264 -0.688 -1.36 -0.162 -1.214 0.524Z" fill="#1c2733" stroke-width="2"></path><path d="M318.536 222.97a6.34 6.34 0 0 0 5.856 5.172c0.634 -0.106 0.634 -1 0.158 -1.268 -0.95 -0.58 -3.852 -0.738 -4.96 -4.168a0.544 0.544 0 0 0 -1.054 0.264Z" fill="#1c2733" stroke-width="2"></path><path d="M318.536 227.138c-0.254 2.952 3.482 6.648 6.49 5.858 0.526 -0.106 0.738 -1.214 0.158 -1.162 -2.85 0.212 -4.908 -3.8 -5.488 -5.012 -0.316 -0.58 -1.116 -0.212 -1.16 0.316Z" fill="#1c2733" stroke-width="2"></path><path d="M365.122 226.294a8.164 8.164 0 0 0 -7.122 -2.584c-0.686 0.158 -0.686 1.318 0 1.318a9.94 9.94 0 0 1 6.384 2.216c0.528 0.422 1.216 -0.482 0.738 -0.95Z" fill="#1c2733" stroke-width="2"></path><path d="M364.49 229.882a6.274 6.274 0 0 0 -7.018 -1.9 0.68 0.68 0 0 0 0.37 1.268 8.526 8.526 0 0 1 5.962 1.582c0.58 0.368 1.108 -0.422 0.686 -0.95Z" fill="#1c2733" stroke-width="2"></path><path d="M364.226 233.47a6.666 6.666 0 0 0 -7.122 -0.58c-0.528 0.316 -0.37 1.266 0.316 1.214a14.474 14.474 0 0 1 6.384 0.368c0.58 0.264 0.9 -0.69 0.422 -1.002Z" fill="#1c2733" stroke-width="2"></path><path d="M333.36 207.67c4.228 -8.1 11.556 -12.822 20.156 -15.3a0.928 0.928 0 0 0 -0.474 -1.8 29.276 29.276 0 0 0 -20.262 16.778c-0.158 0.376 0.362 0.74 0.58 0.322Z" fill="#1c2733" stroke-width="2"></path><path d="M363.6 207.618a168.6 168.6 0 0 1 -20.63 7.386c0.632 -3.8 0.896 -7.65 1.74 -11.45a0.628 0.628 0 0 0 -1.214 -0.316 23.284 23.284 0 0 0 -1.952 12.082q-2.056 0.4 -4.114 0.95c-4.59 -2.268 -14.826 -14.088 -17.464 -17.516a0.8 0.8 0 0 0 -1.372 0.8c0.054 0.054 1.214 13.296 1.9 15.776 0.158 0.476 1 0.58 1.056 0a65.844 65.844 0 0 0 -0.898 -12.4c1.744 2.514 13.952 14.562 16.726 14.562 4.59 0.052 21.842 -5.382 25.534 -7.388a34.238 34.238 0 0 0 -1.054 11.45c0.052 0.686 1.16 0.95 1.266 0.158a105.76 105.76 0 0 0 1.584 -13.664c-0.06 -0.848 -0.908 -0.536 -1.108 -0.43Z" fill="#1c2733" stroke-width="2"></path><path d="M389.974 210.414c-0.2 -12.03 -10.764 -22.898 -23.11 -22.16a6.424 6.424 0 0 1 -1.056 0 30.838 30.838 0 0 1 0.264 -9.074c0 -0.16 1.846 -7.07 -0.104 -6.648a42.768 42.768 0 0 0 -5.276 2c-1.426 0.476 -0.634 1.8 0.052 2.532a5.046 5.046 0 0 0 4.168 2.058c-1.266 3.218 -0.054 10.448 0 10.5 -0.158 0.422 0.316 2.48 -1.478 3.694a4.434 4.434 0 0 1 -5.222 0 0.484 0.484 0 0 0 -0.686 0.684 5.242 5.242 0 0 0 6.6 1.108 5.752 5.752 0 0 0 2.692 -4.906c25.6 1.058 29.8 35.354 2.584 41.418a4.658 4.658 0 0 0 -0.95 -4.486c3.588 -2.48 10.552 -16.83 4.908 -24.638 -0.476 -0.686 -1.846 -0.264 -1.424 0.58 5.276 10.552 -1.056 20.418 -4.064 23.214 -0.158 0.106 -0.79 0.844 -0.58 1.108 1.848 2.374 0.106 4.116 0.316 4.854a0.888 0.888 0 0 0 0.844 0.738 17.962 17.962 0 0 0 10.712 -2.8 23.828 23.828 0 0 1 -2.27 8.706 0.8 0.8 0 0 0 1.32 0.8 14.118 14.118 0 0 0 2.742 -10.764 23.532 23.532 0 0 0 9.018 -18.518Z" fill="#1c2733" stroke-width="2"></path><path d="M381.426 314.2c1.582 -3.06 2.058 -47.6 -5.6 -71.068a24.2 24.2 0 0 1 -21.63 1.952c2.216 -0.686 4.432 -1.426 6.6 -2.322a0.678 0.678 0 0 0 0.686 -0.476 18.17 18.17 0 0 0 0.318 -4.958c-0.16 -0.686 -1.056 -0.528 -1.268 0a11.386 11.386 0 0 0 -0.474 3.8c-3.904 1.056 -18.466 6.12 -21.842 7.544 -1.9 -2.216 -12.928 -7.86 -15.4 -8.916 0.106 -0.632 -0.474 -3.956 -0.42 -5.012 0.052 -0.528 -0.8 -0.632 -0.898 -0.106a27.168 27.168 0 0 0 -0.422 5.434 134.228 134.228 0 0 0 16.726 10.078c3.956 -0.896 12.6 -3.852 13.032 -4 -2.8 5.54 2.11 58.828 2.638 60a38.316 38.316 0 0 0 -9.024 6.91c-1.16 1.162 -3.64 3.378 -1.8 5.066 1.8 1.636 5.6 -0.58 7.386 -1.32a17.49 17.49 0 0 0 7.544 -4.958c0.476 -0.634 -0.422 -1.268 -1 -1 -1.848 0.844 -7.862 5.698 -11.132 5.698 -2.428 0 -0.8 -1.476 0.104 -2.426 0.8 -0.844 6.49 -5.54 8.442 -7.018a5.358 5.358 0 0 0 3.112 2.48c5.964 1.266 5.6 -27.434 6.914 -31.55A138.38 138.38 0 0 1 360 257.898a0.578 0.578 0 0 1 1.11 -0.316c1.8 4.696 13.664 58.4 14.456 58.828a4.416 4.416 0 0 0 4.854 -0.898c1.318 1.372 5.75 5.276 6.384 6.068 1.53 1.9 0.844 3.218 -1.424 2.216a27.028 27.028 0 0 1 -9.076 -6.49c-0.368 -0.422 -1.16 0.158 -0.8 0.634a23.95 23.95 0 0 0 6.28 5.908c1.74 1.108 4.906 3.43 7.016 1.952 4.286 -3.06 -4.102 -9.654 -7.374 -11.6Z" fill="#1c2733" stroke-width="2"></path><path d="M366.548 164.882c-3.464 -6.4 -12.69 -6.752 -16.514 0.896 -1.162 2.428 -0.8 8.706 -4 9.074 -2.692 0.318 -2.322 2.534 -0.95 2.902 5.962 1.636 12.768 -0.526 18.256 -2.69 4.58 -1.742 5.49 -5.968 3.208 -10.182Z" fill="#ffb306" stroke-width="2"></path><path d="M251.688 119.56c-1.214 -2.638 -11.45 -17.728 -23.952 -19.416 -26.8 -3.694 -36.142 12.716 -39.466 19.364a1.586 1.586 0 0 0 0.422 2c1.9 1.9 6.014 4.432 6.278 4.062 1.108 -1.318 10.6 -15.4 23.9 -15.564a30.516 30.516 0 0 1 24.534 12.24c-2.478 0.898 -8.442 4.01 -7.86 4.6 6.066 5.488 12.662 10.448 18.836 15.776a1.632 1.632 0 0 0 2.742 -1.108c0.158 -4.01 3.958 -19 4.062 -22.582 0.054 -1.272 -8.652 0.312 -9.496 0.628Z" fill="#ffb306" stroke-width="2"></path><path d="M245.514 147.946c-1.108 1.318 -9.338 15.036 -25.324 15.352 -18.784 -1 -22.476 -11.29 -23.162 -12.082 2.48 -0.896 8.442 -4.01 7.862 -4.6 -6.068 -5.488 -12.664 -10.446 -18.836 -15.776a1.634 1.634 0 0 0 -2.744 1.108c-0.158 4 -3.956 19 -4.062 22.582a1.442 1.442 0 0 0 2.162 1.32 38.266 38.266 0 0 0 7.282 -1.9c1.214 2.638 11.344 18.888 27.118 19.468 28.28 1.108 33.03 -12.768 36.354 -19.416 0.262 -1.836 -5.014 -7.746 -6.65 -6.056Z" fill="#ffb306" stroke-width="2"></path><path d="M128.282 309.286c-0.212 -1.53 -0.8 -5.116 -0.846 -5.434a9.524 9.524 0 0 1 -11.924 -1.054c-0.262 1.16 -1.106 4.536 -1.212 5.064a11.078 11.078 0 0 0 7.122 3.376 9.648 9.648 0 0 0 6.86 -1.952Z" fill="#ffb306" stroke-width="2"></path><path d="M122.372 292.562a4.858 4.858 0 0 0 2.744 -1.214l-0.8 -3.324c-0.966 -4.056 -3.876 -3.364 -4.906 0.37 -0.212 0.686 -0.37 1.372 -0.58 2a4.724 4.724 0 0 0 3.542 2.168Z" fill="#ffb306" stroke-width="2"></path><path d="M126.8 299.842c-0.264 -1.53 -0.528 -3.06 -0.844 -4.59a8.508 8.508 0 0 1 -8.23 -0.844c-0.424 1.53 -0.846 3.114 -1.268 4.644 3.434 2.162 6.97 2.948 10.342 0.79Z" fill="#ffb306" stroke-width="2"></path><path d="M129.126 314.774c-3.8 2.638 -12.822 2.374 -15.882 -2.11 -0.546 2.916 -1.898 7.016 0.212 9.128 2.902 2.8 11.6 3.164 15.51 -0.16a2.818 2.818 0 0 0 0.8 -2.848 52.224 52.224 0 0 0 -0.64 -4.01Z" fill="#ffb306" stroke-width="2"></path><path d="M319.748 263.438a151.604 151.604 0 0 0 -1.264 -6.754 6.948 6.948 0 0 1 -3.906 1.688 6.234 6.234 0 0 1 -3.852 -1c-0.526 1.9 -1.054 3.852 -1.53 5.752a10.624 10.624 0 0 0 10.552 0.314Z" fill="#ffb306" stroke-width="2"></path><path d="M321.384 273.938c-0.158 -1.162 -0.896 -5.91 -1.108 -7.124 -3.64 2 -8.862 2.428 -11.976 -0.21 -0.21 0.738 -1.214 5.17 -1.53 6.6a12.498 12.498 0 0 0 14.614 0.734Z" fill="#ffb306" stroke-width="2"></path><path d="M322.018 277.736c-3 2.902 -12.98 4.274 -16.146 -0.37 0 0.106 -1.634 5.436 0 7.334a10.988 10.988 0 0 0 5.8 2.27c7.756 0.2 9.6 -1.162 10.71 -2.8 1.482 -2.108 -0.364 -6.276 -0.364 -6.434Z" fill="#ffb306" stroke-width="2"></path><path d="M317.744 253.36c-0.158 -0.686 -0.316 -1.424 -0.528 -2.11 -0.966 -4.06 -3.876 -3.362 -4.906 0.37 -0.158 0.632 -0.37 1.266 -0.528 1.846a5.68 5.68 0 0 0 5.962 -0.106Z" fill="#ffb306" stroke-width="2"></path><path d="M275.588 269.084c-3.694 -5.014 -19.522 -25 -23.952 -29.704a65.6 65.6 0 0 0 -13.086 -0.16 98.8 98.8 0 0 0 -1.688 -11.502 0.54 0.54 0 0 0 -1.054 0.16 105.496 105.496 0 0 0 1.476 16.936c0.106 0.316 0.634 0.316 0.844 0a7.76 7.76 0 0 0 0.582 -4.168 94.414 94.414 0 0 0 12.292 -0.106c3.43 5.224 17.78 23.584 21.052 27.7 -4.326 -0.264 -102.988 0.79 -103.938 0.896 3.112 -4.8 17.78 -23.056 20.944 -28.068a56.846 56.846 0 0 0 10.4 -0.106c0.106 1.688 0.264 3.324 0.37 4.96 0.106 1.16 1.9 1.16 1.8 0 -0.316 -5.8 0 -11.872 -0.844 -17.622a0.586 0.586 0 0 0 -1.108 0 50 50 0 0 0 -0.316 10.92 93.296 93.296 0 0 0 -10.974 0.528c-4.432 4.6 -19.258 24.534 -22.53 29.388a43.676 43.676 0 0 0 0.686 9.234c1.266 1.37 72.388 1.212 107.948 1.688 1.834 0 1.36 -10.658 1.096 -10.974Z" fill="#1c2733" stroke-width="2"></path><path d="M146.272 275.836c-3.94 -11.156 -24.322 -53.974 -30.232 -64.21 0.212 0 1.53 0.054 1.636 -1a16.8 16.8 0 0 0 -0.422 -5.118c-0.106 -0.526 -1.108 -1 -2 -0.896 -2.216 -3.8 -11.66 -5.54 -11.6 -5.6 2.48 -2.48 2.744 -22.688 1.056 -26.222 -0.37 -0.686 -20.578 -25.272 -23.48 -22.318 -7.6 11.29 -23.688 11.976 -23.848 11.976 -0.79 -9.76 -5.538 -18.836 -7.332 -28.438 -1.8 -9.496 -0.16 -18.096 6.014 -25.482 1.108 3.534 9.286 5.116 11.132 0.632 0.264 -0.632 -0.58 -1.16 -1.108 -0.844a8.442 8.442 0 0 1 -4.642 1.8 5.386 5.386 0 0 1 -4 -2.48A15.766 15.766 0 0 0 56 96.134a0.584 0.584 0 0 0 -1.056 0.476 61.246 61.246 0 0 1 1.16 6.224A23.332 23.332 0 0 1 56 106.58c-7.968 4.6 -9.6 15.566 -8.6 23.848 1.138 9.58 4.6 15.876 8.916 32.66 0.052 0.158 2.744 36.2 2.902 38.462a26.034 26.034 0 0 0 -4.064 0.106c-0.474 0.052 -0.948 0.368 -0.896 0.896 0.106 1.53 -0.158 5.752 1.266 5.856 -3.956 5.856 -37.83 64.948 -45.374 78.138A1.064 1.064 0 0 0 12 287.6c4.01 -7.016 8.074 -14.034 12.082 -21.052 6.122 1.32 31.236 3 37.514 3.272 -4.432 7.65 -8.812 15.354 -12.768 23.214a1.064 1.064 0 0 0 1.846 1.056c6.912 -11.6 34.77 -60.886 35.244 -61.73 1.9 4.38 16.514 45.322 18.2 47.748a0.922 0.922 0 0 0 1.69 -0.474c-0.054 -2.8 -6.386 -19.416 -6.8 -20.472a298.226 298.226 0 0 0 37.038 -1.952 2910.88 2910.88 0 0 1 8.178 19.152c0.466 1.374 2.532 0.838 2.048 -0.526Zm-48.328 -74.4a8.8 8.8 0 0 0 4.378 -1.424 30.678 30.678 0 0 1 9.708 4.274c-3.352 -0.164 -3.84 0.174 -13.612 -0.476a4.558 4.558 0 0 1 -0.474 -2.366Zm-21.474 -29.8c5.276 2.27 13.612 6.648 16.304 7.44 0.632 3.272 2.69 13.876 3.904 21a7.698 7.698 0 0 0 -0.212 3.64c-0.844 -0.052 -13.982 -0.422 -23.214 -0.844 1.16 -8.814 3.06 -29.654 3.218 -31.238Zm-14.034 56.138a6 6 0 0 0 4.748 0.528c5.488 1.212 9.762 3.904 9.972 4.59a437.248 437.248 0 0 0 -14.878 -1.688 14.91 14.91 0 0 0 0.158 -3.432Zm-10.658 -9.708a9.974 9.974 0 0 0 7.44 0.8c0.528 -0.264 0.368 -1.266 -0.158 -1.214a25.574 25.574 0 0 1 -6.6 -0.8c1.582 -2.8 3.06 -5.6 4.432 -8.442a9.938 9.938 0 0 1 2.85 0.212c0.052 0.632 1.688 15.88 1.582 19 -0.052 1.054 -0.212 3.588 -0.158 3.64 -5.6 -0.474 -10.922 -0.898 -16.462 -0.844 0.48 -0.958 5.228 -9.136 7.074 -12.354Zm10.868 49.912c-6.436 -0.264 -31.708 -2.48 -37.882 -2.586 2.058 -3.64 4.168 -7.28 6.226 -10.922 2.85 0.476 31.076 4.168 36.932 4.6 -1.74 2.942 -3.482 5.898 -5.276 8.906Zm6.544 -11.028c-6.754 -0.58 -31.816 -4.326 -37.514 -3.64 1 -1.742 4.432 -7.8 5.172 -9.128 6.33 1.424 35.2 3.482 37.776 3.536a489.12 489.12 0 0 0 -5.424 9.23Zm6.7 -11.448c-2.69 -0.634 -31.92 -3 -38.252 -2.692 2.11 -3.692 4.222 -7.44 6.332 -11.132 12.556 1.636 25.22 2.268 37.828 3.956 -1.998 3.27 -3.956 6.594 -5.908 9.866Zm7.228 -12.136c-0.738 -0.106 -2.48 -0.21 -2.586 -0.316a20.918 20.918 0 0 0 -12.346 -5.6c0 -0.052 0.844 -0.052 0.95 -0.526 1.266 -5.8 2.322 -11.714 3.218 -17.622 2.956 0.528 23.268 1.372 24.428 1.424a189.83 189.83 0 0 0 -6.014 9.866c-0.158 -0.158 -6.014 -0.158 -8.652 -0.264a371.492 371.492 0 0 0 -5.276 -10.234c-0.318 -0.582 -1.108 -0.054 -0.844 0.474q2.296 4.826 4.432 9.656a154.32 154.32 0 0 1 -6.86 -0.476c-0.58 -0.052 -0.632 0.8 -0.106 0.95a36.42 36.42 0 0 0 7.914 1.636c1.214 2.638 2.376 5.328 3.536 7.966 -0.634 1.112 -1.16 1.956 -1.794 3.064Zm2.954 -4.906 -2.848 -6.016a53.24 53.24 0 0 0 6.49 -0.052c-1.056 1.792 -3.536 5.808 -3.642 6.066Zm12.346 29.388c-1.74 -4.6 -9.338 -22.846 -11.4 -27.33 0.37 -0.634 8.4 -13.614 11.766 -19.68l16.04 0.79c0 0.618 5.866 10.514 20.418 43.8 -2.898 0.096 -30.704 1.836 -36.824 2.418Z" fill="#1c2733" stroke-width="2"></path><path d="M327.136 79.726a1.13 1.13 0 0 0 -0.528 -2.11c-47.432 -1.266 -169.414 -1.952 -182.868 -1.53a0.528 0.528 0 0 0 0 1.054c47.484 1 168.728 2.27 181.866 2.692 -0.37 16.566 0.8 74.76 1.108 87.212a22.164 22.164 0 0 0 -4.17 0.898c0 -0.054 0 -69.064 -0.578 -82.73a1.06 1.06 0 0 0 -0.95 -1.37c-47.644 -2.586 -168.886 -1.848 -175.482 -1 -0.634 0.106 -0.686 1.056 0 1 22 -0.476 161.922 1.476 174.532 2.056 -0.16 6.28 1.372 82.308 1.424 82.412 -35.296 10.342 -70.8 19.838 -106.47 28.914 0 0 -92.014 -32.976 -97.132 -34.664 0 -0.106 0.264 -31.762 -0.74 -47.432a0.37 0.37 0 0 0 -0.738 0c-1.318 15.512 -0.37 31.288 -0.37 46.8 -1.266 -0.422 -2.532 -0.79 -3.85 -1.212 -0.582 -14.616 -1.32 -29.23 -1.952 -43.844a0.528 0.528 0 0 0 -1.056 0c-1.108 26.538 1.478 53.076 1.53 79.614a1.162 1.162 0 0 0 2.322 0c0 -5.698 -0.106 -11.4 -0.212 -17.146a114.2 114.2 0 0 0 3.8 1.53c-0.21 3.166 -0.104 16.2 0.846 19.2a0.578 0.578 0 0 0 1.108 0c0.686 -3.218 -0.318 -15.88 -0.74 -18.73 3.852 1.372 67.482 22 69.8 22.74 -4.432 1.108 -49.436 12.03 -64 15.986a0.4 0.4 0 0 0 0.212 0.8c8.282 -1.636 16.566 -3.482 24.8 -5.382a40.324 40.324 0 0 0 -0.686 9.762c-6.014 0.158 -12.028 0.368 -18 0.79a0.502 0.502 0 0 0 0 1c12.452 0.686 177.328 -0.582 184.502 -0.898a1.082 1.082 0 0 0 0 -2.162c-6.33 -0.582 -20 -0.582 -20.418 -0.582 -0.104 -0.21 -10.816 -3.692 -15.932 -5.328 4.324 0.316 29.492 0.37 32.658 -0.422 0.686 -0.158 0.474 -1.056 -0.158 -1.16 -3.166 -0.318 -32.238 -0.898 -38.41 -0.264 -1.952 -0.634 -25.484 -8.074 -28.8 -9.022 16.674 -4.486 72.652 -19.048 83.89 -22.266 0.21 6.8 0.422 13.56 0.8 20.366a1.136 1.136 0 0 0 2.27 0c-0.432 -16.728 -2.86 -115.758 -3.228 -125.572Zm-160.498 145.144c-4.6 0.052 -9.18 0.106 -13.718 0.212A54.18 54.18 0 0 0 154.6 214q7.44 -1.742 14.88 -3.642a50.534 50.534 0 0 0 -2.842 14.512ZM220.4 197.434c6.33 -1.636 12.662 -3.27 19 -4.958 -0.58 0.79 -3.164 14.4 -3.164 14.456 -6.332 1.74 -12.664 3.482 -19 5.17 0.264 -0.528 2.584 -10.394 3.164 -14.668Zm10.4 13.138c-0.052 0.158 4.222 9.338 4.38 9.496 -6.016 -2 -11.978 -4.01 -18.044 -5.856 4.532 -1.16 9.064 -2.374 13.664 -3.64Zm-18.254 -12.82c-5.118 1.318 -10.236 2.584 -15.354 3.904a88.256 88.256 0 0 1 -3.428 -10.288c3.37 1.212 15.874 5.644 18.776 6.384Zm1.582 1.318c-0.58 0.898 -3.694 14.774 -3.694 14.878 -2.638 0.74 -12.24 3.272 -14.35 3.852a93.418 93.418 0 0 0 1.848 -14.614c1.682 -0.422 12.444 -3.166 16.19 -4.116Zm-101.4 -21.368c-0.104 -5.276 -0.316 -10.5 -0.474 -15.776 2.532 1.056 5.118 2.058 7.704 3.06a133.37 133.37 0 0 0 7.28 17.518c-4.814 -1.636 -9.614 -3.378 -14.522 -4.802ZM134.2 184.772c0 -0.158 -6.33 -15.986 -7.228 -17.2 5.17 1.9 10.342 3.694 15.512 5.54v0.052c1.478 5.012 2.322 11.66 5.75 15.988 -4.652 -1.478 -9.348 -2.902 -14.034 -4.38Zm22.476 6.964c-0.052 -0.158 -6.8 -15.248 -7.386 -16.25 0.422 0.158 10.868 3.904 15.616 5.6 2.692 5.012 3.536 11.4 7.23 15.512a1299.856 1299.856 0 0 0 -15.47 -4.862Zm21.684 6.912s-5.856 -14.088 -6.33 -15.036l14.72 5.222c0 0.158 4.6 13.032 4.96 14.14 -0.212 0.054 -0.476 0.106 -0.686 0.158 -2.806 -1.372 -11.406 -4.062 -12.674 -4.484Zm-2.214 10.078c5.434 -1.372 10.814 -2.744 16.25 -4.116 -0.37 0.8 -1.69 10.658 -2.164 14.668 0 0.19 1.374 -0.246 -17.832 4.854 0.464 -0.732 3.788 -15.354 3.736 -15.406Zm-0.264 15.986c5.6 -1.372 31.972 -8.02 39.2 -9.92 7.968 3.06 16.092 5.858 24.164 8.654 -21.166 0.264 -42.27 0.79 -63.374 1.266Zm112.01 -1.424c-19.868 -0.288 -19 0.146 -19 -0.318a42.094 42.094 0 0 0 -4.062 -7.122c0.102 0.052 15.506 5.064 23.052 7.44Zm-30.02 -9.708c-0.054 0.158 3.48 6.648 5.328 9.6 -20.69 0 -18.074 0.476 -20.05 -0.37a114.112 114.112 0 0 0 -7.28 -13.56c1.636 -0.422 3.272 -0.896 4.906 -1.318 3.526 1.48 15.024 5.014 17.086 5.648Zm0.262 -12.61c-4.906 1.318 -9.866 2.69 -14.772 4a79.584 79.584 0 0 0 3.43 -14.4c0 -0.2 -0.6 0.158 14.086 -3.8 -0.116 0.324 -2.754 14.042 -2.754 14.2Zm20.472 -5.54c-4.432 1.214 -13.506 3.64 -13.612 3.692a83.74 83.74 0 0 0 3.43 -14.35c4.6 -1.266 9.232 -2.48 13.822 -3.746a110.458 110.458 0 0 0 -3.646 14.404Zm20.576 -5.488c-0.686 0.158 -9.444 2.48 -13.084 3.482 1.16 -4.326 3.43 -14.034 3.06 -14.35 4.8 -1.32 9.6 -2.69 14.4 -4.01 -1.062 2.004 -4.386 14.72 -4.386 14.878Zm18.52 -4.906c-3.588 0.896 -7.176 1.846 -10.764 2.8a79.728 79.728 0 0 0 2.268 -14.35 1016.838 1016.838 0 0 1 12.136 -3.378c-2.174 4.428 -3.65 14.822 -3.65 14.928Zm5.8 -1.372c0.58 -3.43 2.954 -12.82 3.27 -14.14 0.054 2 0.316 10.868 0.37 13.296 -1.22 0.264 -2.434 0.528 -3.646 0.844Z" fill="#1c2733" stroke-width="2"></path></svg>